<svg xmlns="http://www.w3.org/2000/svg" version="1.1" xmlns:xlink="http://www.w3.org/1999/xlink" xmlns:svgjs="http://svgjs.dev/svgjs" viewBox="0 0 800 800"><defs><linearGradient x1="50%" y1="0%" x2="50%" y2="100%" id="uundulate-grad"><stop stop-color="#745850" stop-opacity="1" offset="45%"></stop><stop stop-color="#f3b699" stop-opacity="1" offset="100%"></stop></linearGradient></defs><g stroke-width="1" stroke="url(#uundulate-grad)" fill="none"><path d="M655.7975132550295 304.945703851977C668.1038858243181 387.06262701211926 646.3953792604265 456.3961888425747 565.3151447157995 552.7855597342101C484.2349101711725 649.1749306258456 336.37570455380364 799.1402755186482 266.61238744081965 767.6146841318277C196.84907032783565 736.0890927450071 253.14371609665687 552.8832746535376 230.4512225734763 401.4627210774704C207.7587290502957 250.04216750140336 100.23147398585803 91.38735874002703 157.68841852955342 40.796026966705654C215.1453630732488 -9.795304806615661 402.4718283154059 103.59314588109555 506.2445563832134 158.6243285655272C610.017284451021 213.65551124995886 643.4911406857409 222.82878069183448 655.7975132550295 304.945703851977C668.1038858243181 387.06262701211926 646.3953792604265 456.3961888425747 565.3151447157995 552.7855597342101 "></path><path d="M637.5262884661657 311.7352680962274C648.9536344233624 387.9866967449311 628.7957354711773 452.36786130178257 553.5069462511665 541.8722771297296C478.21815703115567 631.3766929576769 340.9203232435989 770.6302275009937 276.14010021011376 741.3564640703746C211.35987717662863 712.0827006397554 263.6334768191055 541.9630124119623 242.56187569043777 401.35821266275707C221.4902745617701 260.753412913552 121.64353771622086 113.431090492274 174.99641479250943 66.4534252741899C228.349291868798 19.47576005610574 402.2952953079439 124.7650356946948 498.6556856566224 175.86541961595276C595.0160760053008 226.96580353721072 626.0989425089692 235.4838394475238 637.5262884661657 311.7352680962274C648.9536344233624 387.9866967449311 628.7957354711773 452.36786130178257 553.5069462511665 541.8722771297296 "></path><path d="M619.255017900935 318.52486285805617C629.8033372460394 388.9107969953211 611.1960459055608 448.33956427856856 541.6987020101662 530.9590250428275C472.20135811477166 613.5784858070864 345.46489615702694 742.1202100009173 285.66776720304074 715.0982745264996C225.87063824905442 688.076339052082 274.1231917651869 531.0427806879652 254.67248303103213 401.25373476562197C235.22177429687736 271.46468884327874 143.05555567021645 135.4748527620991 192.30436527909825 92.11085409925221C241.55317488798 48.746855436405326 402.1187165241147 145.93695602587212 491.0667691536639 193.10654118395638C580.0148217832134 240.2761263420407 608.7066985558304 248.13892872079123 619.255017900935 318.52486285805617C629.8033372460394 388.9107969953211 611.1960459055608 448.33956427856856 541.6987020101662 530.9590250428275 "></path><path d="M600.983777853282 325.31448813746283C610.6530705862947 389.834927763289 593.5963868575225 444.31129777293245 529.8904882867441 520.0458034735032C466.1845897159659 595.780309174074 350.00949958803324 713.610223018419 295.1954647135458 688.8401155002027C240.38142983905834 664.0700079819866 284.6129372288465 520.1225794815462 266.7831208892046 401.1492873860649C248.9533045495627 282.1759952905836 164.46760414179022 157.51864554950225 209.6123462832652 117.76831344189264C254.75708842474012 78.01798133428298 401.9421682578635 167.10890687462756 483.4778831682838 210.34769326953813C565.013598078704 253.58647966444875 591.3144851202696 260.7940485116367 600.983777853282 325.31448813746283C610.6530705862947 389.834927763289 593.5963868575225 444.31129777293245 529.8904882867441 520.0458034735032 "></path><path d="M582.7125225468402 332.1040523817135C591.5027886677608 390.75899749610085 575.9967125506953 440.2829702321404 518.0822593045331 509.13252086902287C460.16780605837096 577.9820715059054 354.55408776025035 685.1001750007645 304.7231469652618 662.5818954387497C254.8922061702732 640.063615876735 295.102667433717 509.2023172399711 278.893743488588 401.04477897135166C262.68481954345896 292.88724070273224 185.87963735457492 179.56237730174922 226.92031202864308 143.42571174937683C267.9609867027112 107.28904619700444 401.76560473282336 188.28079668822676 475.88898192411455 227.58878431996368C550.0123591154056 266.89677195170054 573.9222564259198 273.449107267326 582.7125225468402 332.1040523817135C591.5027886677608 390.75899749610085 575.9967125506953 440.2829702321404 518.0822593045331 509.13252086902287 "></path><path d="M564.4412519816094 338.89363188475306C572.3524914904378 391.68308248770177 558.3970229850788 436.25465795013724 506.27401506353294 498.2192535233314C454.15100714198707 560.1838490965257 359.09866067367847 656.590142241899 314.2508139581887 636.3236906360856C269.402967242699 616.0572390302724 305.59238237979844 498.28207025718484 291.0043508291823 400.9402858154274C276.4163192785662 303.59850137366993 207.29165530857057 201.60612431278525 244.2282625152319 169.08312531565008C281.1648697218932 136.5601263185149 401.58902594899416 209.452701760615 468.3000654211562 244.82989062917824C535.0111048933181 280.20707949774146 556.530012472781 286.10418128180436 564.4412519816094 338.89363188475306C572.3524914904378 391.68308248770177 558.3970229850788 436.25465795013724 506.27401506353294 498.2192535233314 "></path><path d="M546.1699966751676 345.68322664658166C553.202209571904 392.60718273809164 540.7973486782514 432.22636092692323 494.46578608132177 487.30600143642926C448.1342234843921 542.3856419459352 363.64324884589564 628.0801247418224 323.77849620990474 610.0655010922108C283.9137435739139 592.0508774425989 316.0821125846689 487.36183853318767 303.1149734285657 400.8358079182923C290.1478342724625 314.30977730339674 228.70368852135528 223.6498865826103 261.53622826060973 194.7405541407124C294.36876799986425 165.8312216988145 401.412462423954 230.62462209179233 460.7111641769869 262.07101219718186C520.0098659300198 293.5174023025714 539.1377837784312 298.75927055507174 546.1699966751676 345.68322664658166C553.202209571904 392.60718273809164 540.7973486782514 432.22636092692323 494.46578608132177 487.30600143642926 "></path><path d="M527.8987566275148 352.47282140841037C534.0519429121591 393.5312829884815 523.1976896302133 428.1980639037092 482.65757235789977 476.39274934952687C442.11745508558624 524.5874347953447 368.1878522769018 599.570107241746 333.3061937204098 583.8073115483357C298.4245351639178 568.0445158549254 326.57185804832847 476.4416068091907 315.2256112867382 400.7313300211571C303.8793645251478 325.02105323312355 250.115736992929 245.6936488524354 278.8442092647767 220.3979829657747C307.5726815366244 195.10231707911402 401.23591415770295 251.79654242296965 453.1222781916067 279.3121337651855C505.0086422255106 306.8277251074013 521.7455703428705 311.4143598283391 527.8987566275148 352.47282140841037C534.0519429121591 393.5312829884815 523.1976896302133 428.1980639037092 482.65757235789977 476.39274934952687 "></path><path d="M509.62750132107294 359.2624314290281C514.9016609936252 394.45539849766055 505.5980153233859 424.1697821392843 470.8493433756886 465.47951252141377C436.1006714279913 506.78924290354325 372.73244044911894 571.0601050004586 342.83387597212584 557.5491372632498C312.9353114951327 544.038169526041 337.0615882531989 465.5213903439826 327.33623388612153 400.62686738281104C317.61087951904415 335.73234442163937 271.5277702057137 267.73742638104954 296.15217501015456 246.05542704962608C320.7765798145955 224.37342771820266 401.0593506326628 272.96847801293603 445.53337694743743 296.5532705919782C490.00740326221216 320.13806317102035 504.35334164852065 324.0694643603956 509.62750132107294 359.2624314290281C514.9016609936252 394.45539849766055 505.5980153233859 424.1697821392843 470.8493433756886 465.47951252141377 "></path><path d="M491.35623075584203 366.0520414496458C495.7513638163023 395.3795140068395 487.9983257577695 420.1415003748593 459.0410991346884 454.56627569330044C430.08387251160735 488.9910510117418 377.27701336254705 542.5501027591713 352.36154296505276 531.2909629781639C327.4460725675585 520.0318231971565 347.55130319928037 454.6011738787746 339.4468412267159 400.5224047444649C331.34237925415135 346.4436356101552 292.93978815970934 289.7812039096637 313.4601254967434 271.71287113347745C333.9804628337775 253.64453835729125 400.88277184883356 294.1404136029024 437.94446044447915 313.7944074187709C475.0061490401247 333.44840123463933 486.9610976953818 336.72456889245206 491.35623075584203 366.0520414496458C495.7513638163023 395.3795140068395 487.9983257577695 420.1415003748593 459.0410991346884 454.56627569330044 "></path><path d="M473.08499070818925 372.84163621147445C476.60109715655744 396.3036142572294 470.3986667097312 416.1132033516452 447.23288541126635 443.6530236063982C424.06710411280153 471.19284386115123 381.8216167935533 514.0400852590948 361.8892404755578 505.03277343428897C341.9568641575624 496.02546160948305 358.04104866293994 443.6809421547774 351.5574790848883 400.41792684732974C345.0739095068367 357.15491153988194 314.3518366312831 311.82496617948874 330.76810650091033 297.3702999585398C347.1843763705376 282.91563373759084 400.7062235825825 315.3123339340798 430.35557445909893 331.0355289867745C460.0049253356154 346.7587240394693 469.56888425982106 349.37965816571943 473.08499070818925 372.84163621147445C476.60109715655744 396.3036142572294 470.3986667097312 416.1132033516452 447.23288541126635 443.6530236063982 "></path><path d="M454.81375066053647 379.631200455725C457.4508304968126 397.2276839900412 452.79900766169294 412.0848758108531 435.4246716878443 432.7397410019178C418.05033571399565 453.39460619298256 386.36622022455947 485.53003724144025 371.4169379860629 478.77455337283584C356.4676557475663 472.0190695042314 368.53079412659946 432.76067991320224 363.6681169430608 400.31341843261646C358.8054397595221 367.8661569520306 335.7638851028569 333.8686979317357 348.0760875050773 323.027698266024C360.38828990729775 312.18669860031224 400.5296753163314 336.484223747679 422.7666884737187 348.2766200372C445.0037016311061 360.0690163267211 452.1766708242603 362.03471692140874 454.81375066053647 379.631200455725C457.4508304968126 397.2276839900412 452.79900766169294 412.0848758108531 435.4246716878443 432.7397410019178 "></path><path d="M436.5424953540946 386.42079521755363C438.3005485782787 398.1517842404311 435.1993333548656 408.056578787639 423.6164427056332 421.8264889150155C412.03355205640077 435.596399042392 390.91080839677664 457.0200197413638 380.9446202377789 452.5163638289609C370.9784320787812 448.01270791655793 379.02052433146997 421.8404481892051 375.77873954244416 400.20894053548125C372.53695475341834 378.5774328817574 357.1759183156415 355.9124602015608 365.38405325045517 348.6851270910863C373.5921881852688 341.4577939806118 400.3531117912912 357.6561440788563 415.1777872295495 365.5177416052037C430.00246266780766 373.37933913155103 434.78444212991053 374.6898061946761 436.5424953540946 386.42079521755363C438.3005485782787 398.1517842404311 435.1993333548656 408.056578787639 423.6164427056332 421.8264889150155 "></path><path d="M418.27125530644184 393.21040523817135C419.1502819185339 399.0758997496101 417.59967430682735 404.028297023214 411.8082289822111 410.9132520869023C406.0167836575949 417.79820715059054 395.4554118277828 428.51001750007646 390.472317748284 426.25818954387495C385.48922366878514 424.0063615876735 389.5102697951295 410.9202317239971 387.8893774006166 400.10447789713515C386.26848500610373 389.28872407027325 378.5879667872153 377.9562377301749 382.6920342546221 374.3425711749377C386.79610172202894 370.7289046197004 400.17656352504014 378.8280796688227 407.5889012441693 382.7588784319964C415.00123896329836 386.6896771951701 417.3922286943498 387.3449107267326 418.27125530644184 393.21040523817135C419.1502819185339 399.0758997496101 417.59967430682735 404.028297023214 411.8082289822111 410.9132520869023 "></path></g></svg>