<svg xmlns="http://www.w3.org/2000/svg" version="1.1" xmlns:xlink="http://www.w3.org/1999/xlink" xmlns:svgjs="http://svgjs.dev/svgjs" viewBox="0 0 800 800" opacity="1"><defs><linearGradient x1="50%" y1="0%" x2="50%" y2="100%" id="uundulate-grad"><stop stop-color="#745850" stop-opacity="1" offset="45%"></stop><stop stop-color="#f3b699" stop-opacity="1" offset="100%"></stop></linearGradient></defs><g stroke-width="1" stroke="url(#uundulate-grad)" fill="none"><path d="M735.9486298211528 387.56465157246475C737.5238934214707 478.9835316042154 703.3043580681874 554.671686186439 578.6850991121715 613.7076435448133C454.0658401561557 672.7436009031877 231.56371206487688 771.1072302441125 137.77618683227757 670.9372468926612C43.98866159967821 570.7672635412098 38.22421820436762 236.23343752039943 128.504977995694 132.89172345784692C218.78573778702037 29.55000939529441 444.57307303367406 121.84015936853115 571.1238338306447 174.89701939240962C697.6745946276152 227.95387941628815 734.3733662208349 296.145771540714 735.9486298211528 387.56465157246475C737.5238934214707 478.9835316042154 703.3043580681874 554.671686186439 578.6850991121715 613.7076435448133 "></path><path d="M714.9518709749088 388.34186084918565C716.4286806002068 474.0470608789519 684.3478662065038 545.0047057997865 567.5173109352389 600.3509158232625C450.68675566397405 655.6971258467385 242.09101057840024 747.9130283538556 154.16520567283834 654.0036689618698C66.23940076727644 560.0943095698842 60.83523508417278 246.4688476753745 145.47344738854127 149.58599074173145C230.1116596929097 52.70313380808852 441.78728648664764 139.22514940799795 560.4286247338075 188.965955680384C679.0699629809674 238.70676195277014 713.4750613496109 302.6366608194194 714.9518709749088 388.34186084918565C716.4286806002068 474.0470608789519 684.3478662065038 545.0047057997865 567.5173109352389 600.3509158232625 "></path><path d="M693.9550816110868 389.11907012590655C695.3334372613649 469.11059015368846 665.391343827242 535.3377254131342 556.3494922407282 586.9941881017116C447.3076406542143 638.6506507902892 252.61827857434542 724.7188264635985 170.55419399582098 637.0700910310786C88.49010941729654 549.4213555985585 83.44622144639982 256.7042578303495 162.44188626381037 166.28025802561604C241.43755108122093 75.85625822088258 439.0014694220429 156.61013944746475 549.7333851193922 203.03489196835847C660.4653008167414 249.45964448925213 692.5767259608086 309.12755009812474 693.9550816110868 389.11907012590655C695.3334372613649 469.11059015368846 665.391343827242 535.3377254131342 556.3494922407282 586.9941881017116 "></path><path d="M672.9582617296867 389.8962946614166C674.2381634049449 464.17413468721406 646.4347909304022 525.6707602852707 545.1816430286394 573.6374756389499C443.92849512687644 621.6041909926291 263.14551605271254 701.5246398321306 186.94315180122555 620.1365283590764C110.74078754973857 538.748416886022 106.05717729104873 266.9396832441136 179.41029462150135 182.97454056828968C252.76341195195408 99.00939789246576 436.2156218398602 173.9951447457206 539.0381149873988 217.10384351512187C641.8606081349374 260.2125422845232 671.6783600544284 315.6184546356192 672.9582617296867 389.8962946614166C674.2381634049449 464.17413468721406 646.4347909304022 525.6707602852707 545.1816430286394 573.6374756389499 "></path><path d="M651.9615028834428 390.6735039381375C653.1429505836811 459.2376639619506 627.4782990687187 516.0037798986184 534.0138548517068 560.2807479173991C440.5494106346948 604.5577159361799 273.67281456623584 678.3304379418735 203.33217064178632 603.2029504282849C132.9915267173368 528.0754629146963 128.66819417085384 277.1750933990886 196.37876401434863 199.66880785217427C264.08933385784337 122.16252230525987 433.4298352928337 191.3801347851874 528.3429058905616 231.17277980309632C623.2559764882894 270.9654248210052 650.7800551832044 322.10934391432454 651.9615028834428 390.6735039381375C653.1429505836811 459.2376639619506 627.4782990687187 516.0037798986184 534.0138548517068 560.2807479173991 "></path><path d="M630.9646982608317 391.4507132148585C632.0476919860502 454.30119323668714 608.5217614306679 506.33679951196586 522.846020898407 546.9240201958482C437.170280366146 587.5112408797306 284.20006730339196 655.1362360516165 219.7211437059799 586.2693724974936C155.24222010856784 517.4025089433708 151.2791652742918 287.41050355406367 213.34718763082867 216.3630751360588C275.41520998736553 145.31564671805393 430.64400296943995 208.7651248246542 517.6476510173572 245.24171609107066C604.6512990652745 281.71830735748716 629.8817045356132 328.6002331930299 630.9646982608317 391.4507132148585C632.0476919860502 454.30119323668714 608.5217614306679 506.33679951196586 522.846020898407 546.9240201958482 "></path><path d="M609.9679088970096 392.2278919740013C610.9524486472083 449.36469199384555 589.5652390514063 496.6697886077353 511.67820220389626 533.5672619567192C433.7911653563863 570.4647353057032 294.72733529933714 631.9420036437813 236.11013202896254 569.3357640491242C177.49292875858794 506.7295244544671 173.89015163651885 297.6458831914606 230.31562650609783 233.05731190236526C286.7411013756768 168.46874061326992 427.8581859048354 226.15008434654288 506.95241140294206 259.310621861467C586.0466369010485 292.47115937639103 608.9833691468109 335.0910919541572 609.9679088970096 392.2278919740013C610.9524486472083 449.36469199384555 589.5652390514063 496.6697886077353 511.67820220389626 533.5672619567192 "></path><path d="M588.9711195331874 393.0051012507223C589.8572053083662 444.4282212685821 570.6087166721445 487.0028082210829 500.5103835093855 520.2105342351684C430.41205034662653 553.418260249254 305.2546032952823 608.7478017535243 252.49912035194518 552.4021861183328C199.74363740860804 496.0565704831415 196.50113799874583 307.8812933464356 247.28406538136693 249.75157918624984C298.066992763988 191.62186502606403 425.07236884023075 243.53507438600968 496.25717178852665 273.3795581494414C567.4419747368227 303.224041912873 588.0850337580086 341.5819812328626 588.9711195331874 393.0051012507223C589.8572053083662 444.4282212685821 570.6087166721445 487.0028082210829 500.5103835093855 520.2105342351684 "></path><path d="M567.9743149105764 393.7823257862324C568.7619467107354 439.4917658021077 551.6521790340937 477.3358430932195 489.3425495560857 506.8538217724067C427.03292007807784 536.3718004515938 315.78185603243844 585.5536151220563 268.88809341613876 535.4686234463306C221.99433079983908 485.3836317706049 219.1121091021838 318.1167187601997 264.252488997847 266.44586172892343C309.3928688935102 214.7750046976472 422.28653651683703 260.92007968426554 485.5619169153224 287.44850969620484C548.8372973138075 313.9769397081441 567.1866831104174 348.072885770357 567.9743149105764 393.7823257862324C568.7619467107354 439.4917658021077 551.6521790340937 477.3358430932195 489.3425495560857 506.8538217724067 "></path><path d="M546.9775408055434 394.5595198041642C547.6667186306825 434.55527981805517 532.695671913621 467.66884744777803 478.17474612036403 493.49707879206676C423.65382032710716 519.3253101363555 326.3091392871727 562.3593979730101 285.2770969979105 518.5350302567502C244.2450547086483 474.71066254049015 241.7231107231999 328.35211365638565 281.2209431319052 283.14011375401896C320.71877554061047 237.92811385165226 419.50073471102144 278.3050544649433 474.86669255969605 301.51743072539017C530.2326504083708 324.729806985837 546.2883629804044 354.5637597902733 546.9775408055434 394.5595198041642C547.6667186306825 434.55527981805517 532.695671913621 467.66884744777803 478.17474612036403 493.49707879206676 "></path><path d="M525.9807361829323 395.3367443396742C526.5714600330515 429.61882435158077 513.7391342755702 458.00188231991467 467.00691216706434 480.14036632930504C420.27469005855835 502.2788503386954 336.83639202432886 539.1652113415422 301.6660700621041 501.601467584748C266.49574809987934 464.03772382795364 264.3340818266379 338.5875390701498 298.1893667483852 299.8343962966926C332.0446516701326 261.0812535232354 416.7149023876278 295.6900597631992 464.1714376864918 315.5863822721536C511.62797298535565 335.48270478110805 525.3900123328131 361.05466432776774 525.9807361829323 395.3367443396742C526.5714600330515 429.61882435158077 513.7391342755702 458.00188231991467 467.00691216706434 480.14036632930504 "></path><path d="M504.98397733668844 396.1139536163952C505.4762472117877 424.6823536263173 494.7826424138867 448.3349019332622 455.8391239901317 466.78363860775414C416.89560556637673 485.23237528224615 347.36369053785216 515.9710094512852 318.05508890266486 484.66788965395665C288.74648726747756 453.3647698566281 286.945098706443 348.82294922512483 315.1578361412325 316.52866358057713C343.37057357602197 284.2343779360295 413.9291158406013 313.075049802666 453.4762285896546 329.655318560128C493.02334133870784 346.23558731759005 504.49170746158904 367.54555360647316 504.98397733668844 396.1139536163952C505.4762472117877 424.6823536263173 494.7826424138867 448.3349019332622 455.8391239901317 466.78363860775414 "></path><path d="M483.98717271407725 396.8911628931162C484.38098861415676 419.74588290105385 475.8261047758359 438.66792154660976 444.6712900368319 453.42691088620336C413.516475297828 468.1859002257969 357.8909432750083 492.77680756102814 334.44406196685844 467.7343117231653C310.9971806587086 442.69181588530245 309.55606980988097 359.0583593800999 332.12625975771255 333.2229308644617C354.6964497055442 307.3875023488236 411.1432835172076 330.4600398421328 442.78097371645026 343.7242548481024C474.41866391569283 356.98846985407204 483.5933568139978 374.03644288517853 483.98717271407725 396.8911628931162C484.38098861415676 419.74588290105385 475.8261047758359 438.66792154660976 444.6712900368319 453.42691088620336 "></path><path d="M462.99038335025523 397.66837216983714C463.2857452753148 414.8094121757904 456.8695823965742 429.00094115995734 433.50347134232123 440.0701831646525C410.13736028806824 451.1394251693477 368.41821127095346 469.5826056707711 350.8330502898411 450.800733792374C333.2478893087287 432.0188619139768 332.167056172108 369.2937695350749 349.0946986329817 349.9171981483463C366.0223410938554 330.5406267616177 408.3574664526029 347.8450298815996 432.08573410203496 357.7931911360768C455.8140017514669 367.741352390554 462.6950214251956 380.5273321638839 462.99038335025523 397.66837216983714C463.2857452753148 414.8094121757904 456.8695823965742 429.00094115995734 433.50347134232123 440.0701831646525 "></path><path d="M441.99356346885503 398.44556618776903C442.1904714188948 409.87292619173786 437.91302949973436 419.3339455145158 422.33562213023237 426.7134401843126C406.75821476073037 434.0929348541094 378.9454487493206 446.388388521725 367.22200809524566 433.8671406027936C355.49856744117074 421.3458926838622 354.7780120167569 379.5291644312609 366.0631069906727 366.6114501734418C377.3482019645885 353.6937359156227 405.5716188704202 365.23000466227734 421.39046397004154 371.86211216526215C437.2093090696628 378.49421966824696 441.7966555188153 387.0182061838002 441.99356346885503 398.44556618776903C442.1904714188948 409.87292619173786 437.91302949973436 419.3339455145158 422.33562213023237 426.7134401843126 "></path><path d="M420.9967893638221 399.22279072327905C421.0952433388419 404.93647072526346 418.95652237926174 409.6669803866524 411.16781869451074 413.35672772155084C403.37911500975974 417.04647505644925 389.4727320040548 423.19420189025703 383.61101167701736 416.93357793079133C377.7492913499799 410.6729539713256 377.38901363777296 389.76458984502494 383.0315611247309 383.3057327161154C388.6741086116888 376.8468755872059 402.78581706460466 382.6150099605332 410.6952396144153 385.9310637120256C418.60466216422594 389.247117463518 420.8983353888022 393.50911072129463 420.9967893638221 399.22279072327905C421.0952433388419 404.93647072526346 418.95652237926174 409.6669803866524 411.16781869451074 413.35672772155084 "></path></g></svg>