<svg xmlns="http://www.w3.org/2000/svg" version="1.1" xmlns:xlink="http://www.w3.org/1999/xlink" xmlns:svgjs="http://svgjs.dev/svgjs" viewBox="0 0 800 800" opacity="1"><defs><linearGradient x1="50%" y1="0%" x2="50%" y2="100%" id="uundulate-grad"><stop stop-color="#745850" stop-opacity="1" offset="45%"></stop><stop stop-color="#f3b699" stop-opacity="1" offset="100%"></stop></linearGradient></defs><g stroke-width="1" stroke="url(#uundulate-grad)" fill="none"><path d="M614.8744129365941 208.91551715753354C674.182235621439 313.43322887206523 786.4584575924289 571.8516592831851 754.33057643031 644.3558832419253C722.2026952681912 716.8601072006655 583.4039173060768 558.2678293677875 460.66058335842445 556.9357921594869C337.91724941077223 555.6037549511861 251.0044365515089 682.9984026087703 165.1625734815799 637.9621046420823C79.32071041165085 592.9258066753944 16.27243333615627 432.14400974509044 48.61964062276496 340.761561919384C80.96684790937366 249.37911409367757 232.7138795155745 240.5952498510273 320.42916845730156 199.32635507869173C408.1444573990284 158.05746030635623 408.31026827653557 140.67312491241404 469.6530275430548 142.6708670121729C530.9957868095739 144.66860911193174 555.5665902517493 104.39780544300197 614.8744129365941 208.91551715753354C674.182235621439 313.43322887206523 786.4584575924289 571.8516592831851 754.33057643031 644.3558832419253 "></path><path d="M601.4447659427542 220.85823630003148C657.0458497097962 318.8435910324049 762.3048078075994 561.1108695428297 732.1849192181128 629.0835795041487C702.0650306286265 697.0562894654678 571.9411762891442 548.3760289971447 456.8693007132201 547.1272441143626C341.7974251372963 545.8784592315808 260.3166630817369 665.310941410566 179.83991645367843 623.0894120667961C99.36316982561993 580.867882723026 40.255410067343746 430.13494810086604 70.58091689853939 344.46390326426626C100.90642372973508 258.7928584276665 243.16926586054842 250.5579857001818 325.40234924341735 211.86839685111727C407.6354326262865 173.17880800205268 407.7908803239494 156.8809935702319 465.2997171363111 158.75387678875586C522.8085539486729 160.62676000727976 545.8436821757123 122.87288156765806 601.4447659427542 220.85823630003148C657.0458497097962 318.8435910324049 762.3048078075994 561.1108695428297 732.1849192181128 629.0835795041487 "></path><path d="M588.0150884313363 232.8010622540528C639.9094332805755 324.254060004268 738.1511275051917 550.3701866139979 710.0392314883377 613.8113825778956C681.9273354714837 677.2525785417934 560.4784047546336 538.484335438025 453.0779875504379 537.318802880762C345.6775703462422 536.1532703234989 269.6288590943867 647.623587023885 194.51722890819883 608.216826303033C119.4055987220109 568.8100655821811 64.23835628095316 428.1259932681651 92.54216265673574 348.16635142067196C120.84596903251833 268.20670957317884 253.6246216879441 260.5208283608598 330.37549951195524 224.41054543506624C407.12637733596625 188.3002625092726 407.271461853785 173.08896903957321 460.94637621198933 174.8369933768622C514.6212905701937 176.5850177141512 536.120743582097 141.34806450383763 588.0150884313363 232.8010622540528C639.9094332805755 324.254060004268 738.1511275051917 550.3701866139979 710.0392314883377 613.8113825778956 "></path><path d="M574.5854414374965 244.74384243170698C622.7730473689328 329.66448319976394 713.9974777203621 539.6294579087989 687.8935742761405 598.5391398752753C661.789670831919 657.4488218417516 549.015663737701 528.5925961025383 449.2867049052336 527.510315870794C349.5577460727661 526.4280356390497 278.9410856246147 629.9361868608369 209.19457188029736 593.3441947629028C139.44805813597998 556.752202664969 88.22133301214063 426.1169926590969 114.50343893251022 351.86875380071046C140.78554485287975 277.620514942324 264.080008032918 270.48362524517063 335.34868029807114 236.95264824264797C406.61735256322424 203.42167124012536 406.75207390119886 189.29689873254733 456.5930658052457 190.92006418860143C506.4340577092926 192.54322964465547 526.3978355060599 159.82320166365002 574.5854414374965 244.74384243170698C622.7730473689328 329.66448319976394 713.9974777203621 539.6294579087989 687.8935742761405 598.5391398752753 "></path><path d="M561.1557944436565 256.6866226093611C605.6366614572901 335.07490639525986 689.8438279355325 528.8887292035997 665.7479170639434 583.2668971726549C641.6520061923543 637.6450651417101 537.5529227207685 518.7008567670516 445.4954222600293 517.701828860826C353.43792179929017 516.7028009546004 288.25331215484266 612.2487866977888 223.8719148523959 578.4715632227728C159.49051754994912 544.6943397477568 112.20430974332811 424.10799205002877 136.46471520828464 355.57115618074897C160.72512067324118 287.0343203114692 274.53539437789186 280.4464221294814 340.32186108418705 249.49475105022975C406.10832779048224 218.5430799709781 406.2326859486127 205.50482842552145 452.239755398502 207.0031350003406C498.2468248483915 208.50144157515973 516.6749274300229 178.29833882346242 561.1557944436565 256.6866226093611C605.6366614572901 335.07490639525986 689.8438279355325 528.8887292035997 665.7479170639434 583.2668971726549 "></path><path d="M547.7261474498166 268.62940278701524C588.5002755456475 340.4853295907557 665.690178150703 518.1480004984007 643.6022598517463 567.9946544700347C621.5143415527896 617.8413084416685 526.0901817038359 508.8091174315649 441.70413961482507 507.8933418508582C357.3180975258142 506.9775662701513 297.5655386850706 594.5613865347406 238.54925782449436 563.5989316826426C179.53297696391814 532.6364768305446 136.18728647451564 422.0989914409606 158.42599148405913 359.2735585607875C180.6646964936026 296.4481256806143 284.9907807228657 290.4092190137922 345.29504187030295 262.03685385781154C405.5993030177402 233.6644887018308 405.7132979960264 221.71275811849557 447.88644499175837 223.0862058120798C490.0595919874903 224.459653505664 506.95201935398586 196.77347598327475 547.7261474498166 268.62940278701524C588.5002755456475 340.4853295907557 665.690178150703 518.1480004984007 643.6022598517463 567.9946544700347 "></path><path d="M534.2965004559768 280.5721829646694C571.3638896340049 345.8957527862517 641.5365283658734 507.40727179320174 621.4566026395491 552.7224117674143C601.376676913225 598.0375517416269 514.6274406869034 498.9173780960782 437.91285696962075 498.0848548408902C361.19827325233814 497.2523315857022 306.87776521529855 576.8739863716925 253.2266007965929 548.7263001425124C199.57543637788729 520.5786139133324 160.17026320570312 420.08999083189246 180.38726775983355 362.975960940826C200.60427231396397 305.86193104975945 295.44616706783955 300.372015898103 350.26822265641886 274.57895666539326C405.0902782449982 248.78589743268356 405.19391004344016 237.9206878114697 443.53313458501475 239.16927662381897C481.87235912658923 240.41786543616826 497.22911127794873 215.24861314308714 534.2965004559768 280.5721829646694C571.3638896340049 345.8957527862517 641.5365283658734 507.40727179320174 621.4566026395491 552.7224117674143 "></path><path d="M520.8668229445589 292.51496314232355C554.227473204784 351.30617598174763 617.3828480634659 496.6665430880025 599.3109149097739 537.450169064794C581.2389817560821 578.2337950415854 503.1646691523928 489.0256387605914 434.1215438068384 488.27636783092225C365.07841846128406 487.5270969012531 316.1899612279484 559.1865862086443 267.9039132511133 533.8536686023824C219.61786527427824 508.52075099612034 184.15320941931247 418.0809902228243 202.3485135180299 366.6783633208645C220.54381761674728 315.2757364189046 305.9015228952353 310.3348127824138 355.2413729249567 287.12105947297505C404.5812229546781 263.9073061635363 404.6744915732759 254.1286175044438 439.1797936606929 255.2523474355582C473.6850957481099 256.3760773666726 487.5061726843336 233.72375030289953 520.8668229445589 292.51496314232355C554.227473204784 351.30617598174763 617.3828480634659 496.6665430880025 599.3109149097739 537.450169064794 "></path><path d="M507.43720646829706 304.45774331997774C537.0911178107194 356.71659917724355 593.2292287962144 485.92581438280354 577.165288215155 522.1779263621736C561.1013476340956 558.4300383415436 491.70195865303845 479.1338994251047 430.3302916792122 478.4678808209544C368.9586247053861 477.801862216804 325.50221827575444 541.4991860455962 282.58128674078995 518.9810370622521C239.66035520582545 496.4628880789081 208.13621666807813 416.07198961375616 224.30982031138245 370.38076570090294C240.48342395468683 324.6895417880497 316.35693975778725 320.2976096667246 360.2145842286508 299.66316228055683C404.0722286995142 279.02871489438905 404.15513413826784 270.33654719741793 434.8265137715274 271.3354182472974C465.49789340478696 272.33428929717684 477.7832951258747 252.19888746271192 507.43720646829706 304.45774331997774C537.0911178107194 356.71659917724355 593.2292287962144 485.92581438280354 577.165288215155 522.1779263621736 "></path><path d="M494.00755947445714 316.40052349763187C519.9547318990768 362.1270223727395 569.0755790113849 475.18508567760443 555.0196310029579 506.90568365955323C540.9636829945309 538.6262816415021 480.2392176361059 469.242160089618 426.539009034008 468.65939381098644C372.83880043191016 468.0766275323549 334.8144448059824 523.811785882548 297.2586297128885 504.108405522122C259.70281461979454 484.405025161696 232.1191933992656 414.062989004688 246.27109658715693 374.08316808094145C260.42299977504825 334.1033471571949 326.8123261027611 330.2604065510354 365.1877650147667 312.20526508813856C403.5632039267722 294.1501236252418 403.63574618568157 286.5444768903921 430.4732033647838 287.4184890590366C457.3106605438859 288.2925012276811 468.0603870498376 270.6740246225243 494.00755947445714 316.40052349763187C519.9547318990768 362.1270223727395 569.0755790113849 475.18508567760443 555.0196310029579 506.90568365955323 "></path><path d="M480.57791248061733 328.34330367528605C502.8183459874341 367.5374455682354 544.9219292265553 464.44435697240533 532.8739737907608 491.6334409569329C520.8260183549662 518.8225249414605 468.7764766191733 459.3504207541313 422.7477263888037 458.8509068010185C376.71897615843415 458.3513928479057 344.1266713362104 506.12438571949986 311.935972684987 489.2357739819919C279.7452740337636 472.3471622444838 256.10217013045315 412.05398839561985 268.2323728629314 377.78557046097995C280.3625755954096 343.51715252634006 337.267712447735 340.2232034353462 370.1609458008826 324.74736789572034C403.0541791540302 309.2715323560945 403.1163582330954 302.7524065833662 426.11989295804005 303.5015598707758C449.1234276829848 304.25071315818536 458.33747897380044 289.14916178233665 480.57791248061733 328.34330367528605C502.8183459874341 367.5374455682354 544.9219292265553 464.44435697240533 532.8739737907608 491.6334409569329 "></path><path d="M467.1482654867775 340.2860838529402C485.6819600757915 372.9478687637313 520.7682794417258 453.70362826720634 510.72831657856364 476.3611982543126C500.6883537154015 499.0187682414189 457.31373560224074 449.4586814186446 418.95644374359944 449.0424197910506C380.59915188495813 448.6261581634566 353.4388978664383 488.43698555645165 326.61331565708554 474.36314244186167C299.7877334477327 460.2892993272717 280.0851468616406 410.0449877865517 290.19364913870584 381.48797284101846C300.30215141577105 352.9309578954852 347.7230987927088 350.18600031965696 375.1341265869985 337.28947070330213C402.54515438128817 324.39294108694725 402.59697028050914 318.96033627634034 421.76658255129644 319.58463068251496C440.9361948220837 320.2089250886896 448.61457089776343 307.62429894214904 467.1482654867775 340.2860838529402C485.6819600757915 372.9478687637313 520.7682794417258 453.70362826720634 510.72831657856364 476.3611982543126 "></path><path d="M453.71860323414853 352.22887928938337C468.5455589053597 378.3583072180163 496.6146143981073 442.9629148207963 488.5826441075775 461.0889708104813C480.5506738170478 479.21502680016636 445.8509793265192 439.5669573419469 415.1651458396061 439.23394803987173C384.47931235269306 438.90093873779654 362.7511091378772 470.7496006521926 341.290643370395 459.4905261605206C319.8301776029127 448.2314516688486 304.06810833403904 408.0360024362726 312.15491015569125 385.19039047984603C320.2417119773434 362.3447785234194 358.1784698788936 360.14881246275684 380.1072921143254 349.8315887696729C402.0361143497571 339.51436507658906 402.0775670691339 335.1682812281035 417.4132568857637 335.66771675304324C432.7489467023935 336.16715227798295 438.89164756293735 326.0994513607505 453.71860323414853 352.22887928938337C468.5455589053597 378.3583072180163 496.6146143981073 442.9629148207963 488.5826441075775 461.0889708104813 "></path><path d="M440.2889409815196 364.1716442082485C451.409157734928 383.76871515472317 472.4609493544886 432.22217085680813 466.43697163659135 445.8167128490719C460.41299391869404 459.41125484133573 434.3882230507976 429.6752027476711 411.3738479356128 429.4254457711147C388.359472820428 429.1756887945583 372.06332040931613 453.0621852303554 355.9679710837044 444.6178793616014C339.87262175809275 436.17357349284737 328.0510698064375 406.0269865684154 334.1161711726766 388.8927776010954C340.1812725389158 371.7585686337755 368.63384096507843 370.11159408827854 385.08045764165223 362.37367631846564C401.527074318226 354.63575854865275 401.55816385775864 351.3761956622886 413.05993122023096 351.75077230599334C424.56169858270334 352.12534894969815 429.16872422811116 344.5745732617738 440.2889409815196 364.1716442082485C451.409157734928 383.76871515472317 472.4609493544886 432.22217085680813 466.43697163659135 445.8167128490719 "></path><path d="M426.85929398767973 376.1144396446917C434.2727718232853 389.17915360900815 448.3072995696591 421.48145741039815 444.2913144243942 430.54448540524066C440.2753292791294 439.6075134000832 422.9254820338651 419.78347867097347 407.5825652904085 419.61697401993587C392.239648546952 419.45046936889827 381.3755469395441 435.3748003260963 370.64531405580294 429.7452630802603C359.91508117206183 424.1157258344243 352.034046537625 404.0180012181363 356.0774474484511 392.595195239923C360.12084835927715 381.1723892617097 379.0892273100523 380.0744062313784 390.05363842776813 374.9157943848365C401.018049545484 369.7571825382945 401.03877590517243 367.58414061405176 408.7066208134873 367.8338583765216C416.3744657218022 368.0835761389915 419.44581615207414 363.0497256803752 426.85929398767973 376.1144396446917C434.2727718232853 389.17915360900815 448.3072995696591 421.48145741039815 444.2913144243942 430.54448540524066 "></path><path d="M413.42964699383987 388.05721982234587C417.13638591164266 394.5895768045041 424.15364978482955 410.74072870519905 422.14565721219714 415.27224270262036C420.13766463956466 419.8037567000416 411.4627410169325 409.8917393354867 403.79128264520426 409.8084870099679C396.119824273476 409.7252346844491 390.687773469772 417.68740016304815 385.32265702790147 414.87263154013016C379.9575405860309 412.05786291721216 376.0170232688125 402.00900060906815 378.0387237242255 396.2975976199615C380.0604241796386 390.58619463085483 389.5446136550261 390.0372031156892 395.0268192138841 387.4578971924182C400.509024772742 384.87859126914725 400.5193879525862 383.7920703070259 404.3533104067437 383.9169291882608C408.18723286090113 384.04178806949574 409.7229080760371 381.5248628401876 413.42964699383987 388.05721982234587C417.13638591164266 394.5895768045041 424.15364978482955 410.74072870519905 422.14565721219714 415.27224270262036 "></path></g></svg>